<svg width="24" height="24" viewBox="0 0 24 24" fill="none" xmlns="http://www.w3.org/2000/svg">
<path d="M15.75 15.75L19.5 19.5" stroke="#1D192B" stroke-width="1.5" stroke-linecap="round" stroke-linejoin="round"/>
<path d="M9.53063 2.78022L15.3753 8.6249C15.3753 8.6249 17.9763 7.32438 20.7564 9.56712C20.8386 9.63321 20.9058 9.71583 20.954 9.80961C21.002 9.90341 21.0299 10.0063 21.0356 10.1115C21.0413 10.2167 21.0248 10.322 20.9871 10.4205C20.9496 10.5189 20.8917 10.6084 20.8172 10.683L10.7019 20.7983C10.6262 20.8742 10.535 20.933 10.4346 20.9706C10.3341 21.0084 10.2268 21.024 10.1198 21.0167C10.0128 21.0092 9.90857 20.979 9.81428 20.9279C9.71998 20.8767 9.63775 20.8059 9.57316 20.7203C8.7863 19.6745 7.55042 17.5247 8.62531 15.3749L2.78063 9.53022C2.63999 9.38957 2.56097 9.1988 2.56097 8.9999C2.56097 8.80098 2.63999 8.61021 2.78063 8.46956L8.46998 2.78022C8.61064 2.63957 8.80139 2.56055 9.00031 2.56055C9.19922 2.56055 9.38999 2.63957 9.53063 2.78022Z" stroke="#1D192B" stroke-width="1.5" stroke-linecap="round" stroke-linejoin="round"/>
</svg>
