<svg width="24" height="24" viewBox="0 0 24 24" fill="none" xmlns="http://www.w3.org/2000/svg">
<path d="M15.75 15.75L19.5 19.5" stroke="#1D192B" stroke-width="1.5" stroke-linecap="round" stroke-linejoin="round"/>
<path d="M9.53062 2.78022L15.3753 8.6249C15.3753 8.6249 17.9763 7.32438 20.7564 9.56712C20.8386 9.63321 20.9058 9.71583 20.9539 9.80961C21.0019 9.90341 21.0298 10.0063 21.0355 10.1115C21.0412 10.2167 21.0247 10.322 20.9871 10.4205C20.9496 10.5189 20.8917 10.6084 20.8171 10.683L10.7019 20.7983C10.6262 20.8742 10.535 20.933 10.4345 20.9706C10.3341 21.0084 10.2268 21.024 10.1198 21.0167C10.0127 21.0092 9.90856 20.979 9.81427 20.9279C9.71996 20.8767 9.63773 20.8059 9.57314 20.7203C8.78629 19.6745 7.55041 17.5247 8.62529 15.3749L2.78062 9.53022C2.63998 9.38957 2.56096 9.1988 2.56096 8.9999C2.56096 8.80098 2.63998 8.61021 2.78062 8.46956L8.46997 2.78022C8.61062 2.63957 8.80138 2.56055 9.00029 2.56055C9.19921 2.56055 9.38998 2.63957 9.53062 2.78022Z" stroke="#1D192B" stroke-width="1.5" stroke-linecap="round" stroke-linejoin="round"/>
</svg>
